<mxfile host="Electron" agent="Mozilla/5.0 (Macintosh; Intel Mac OS X 10_15_7) AppleWebKit/537.36 (KHTML, like Gecko) draw.io/28.2.7 Chrome/138.0.7204.251 Electron/37.7.1 Safari/537.36" version="28.2.7">
  <diagram name="第 1 页" id="ySjCSLjJKap64BonE_rv">
    <mxGraphModel dx="1018" dy="748" grid="1" gridSize="10" guides="1" tooltips="1" connect="1" arrows="1" fold="1" page="1" pageScale="1" pageWidth="827" pageHeight="1169" math="0" shadow="0">
      <root>
        <mxCell id="0" />
        <mxCell id="1" parent="0" />
        <mxCell id="AU30TaNRJVCXWyLaHYYB-1" value="" style="rounded=0;whiteSpace=wrap;html=1;" vertex="1" parent="1">
          <mxGeometry x="110" y="270" width="60" height="170" as="geometry" />
        </mxCell>
        <mxCell id="AU30TaNRJVCXWyLaHYYB-2" value="vocab" style="labelPosition=right;align=left;strokeWidth=1;shape=mxgraph.mockup.markup.curlyBrace;html=1;shadow=0;dashed=0;strokeColor=#999999;direction=north;" vertex="1" parent="1">
          <mxGeometry x="160" y="70" width="20" height="140" as="geometry" />
        </mxCell>
        <mxCell id="AU30TaNRJVCXWyLaHYYB-3" value="0.1,.......0.1" style="rounded=0;whiteSpace=wrap;html=1;" vertex="1" parent="1">
          <mxGeometry x="200" y="70" width="100" height="20" as="geometry" />
        </mxCell>
        <mxCell id="AU30TaNRJVCXWyLaHYYB-4" value="0.1,.......0.1" style="rounded=0;whiteSpace=wrap;html=1;" vertex="1" parent="1">
          <mxGeometry x="200" y="190" width="100" height="20" as="geometry" />
        </mxCell>
        <mxCell id="AU30TaNRJVCXWyLaHYYB-5" value="" style="rounded=1;whiteSpace=wrap;html=1;strokeWidth=2;fillWeight=4;hachureGap=8;hachureAngle=45;fillColor=#1ba1e2;sketch=1;" vertex="1" parent="1">
          <mxGeometry x="220" y="555" width="120" height="60" as="geometry" />
        </mxCell>
      </root>
    </mxGraphModel>
  </diagram>
</mxfile>
